<?xml version="1.0" encoding="UTF-8" standalone="no"?>
<svg
   xmlns:dc="http://purl.org/dc/elements/1.1/"
   xmlns:cc="http://creativecommons.org/ns#"
   xmlns:rdf="http://www.w3.org/1999/02/22-rdf-syntax-ns#"
   xmlns:svg="http://www.w3.org/2000/svg"
   xmlns="http://www.w3.org/2000/svg"
   viewBox="0 0 228 228"
   height="228"
   width="228"
   xml:space="preserve"
   id="svg2"
   version="1.1"><metadata
     id="metadata8"><rdf:RDF><cc:Work
         rdf:about=""><dc:format>image/svg+xml</dc:format><dc:type
           rdf:resource="http://purl.org/dc/dcmitype/StillImage" /></cc:Work></rdf:RDF></metadata><defs
     id="defs6" /><g
     transform="matrix(1.3333333,0,0,-1.3333333,0,228)"
     id="g10"><g
       transform="scale(0.1)"
       id="g12"><path
         id="path14"
         style="fill:#ffffff;fill-opacity:1;fill-rule:evenodd;stroke:none"
         d="M 5.98438,1709.84 H 1706.77 V 9.05469 H 5.98438 V 1709.84" /><path
         id="path16"
         style="fill:#ff5a5f;fill-opacity:1;fill-rule:evenodd;stroke:none"
         d="m 887.031,947.469 c 0,-12.75 -10.273,-23.02 -23.023,-23.02 -12.75,0 -23.024,10.27 -23.024,23.02 0,12.754 9.918,23.023 23.024,23.023 13.105,-0.351 23.023,-10.625 23.023,-23.023 z m -94.929,-46.403 c 0,-2.121 0,-5.664 0,-5.664 0,0 -10.977,14.168 -34.356,14.168 -38.609,0 -68.719,-29.398 -68.719,-70.132 0,-40.379 29.754,-70.137 68.719,-70.137 23.731,0 34.356,14.527 34.356,14.527 v -6.027 c 0,-2.828 2.125,-4.957 4.961,-4.957 h 28.691 v 133.183 c 0,0 -26.215,0 -28.691,0 -2.836,0 -4.961,-2.48 -4.961,-4.961 z m 0,-85.363 c -5.313,-7.789 -15.938,-14.523 -28.688,-14.523 -22.672,0 -40.027,14.172 -40.027,38.258 0,24.085 17.355,38.253 40.027,38.253 12.395,0 23.731,-7.086 28.688,-14.523 z m 54.906,90.324 h 34.004 V 772.844 h -34.004 z m 507.942,3.543 c -23.38,0 -34.36,-14.168 -34.36,-14.168 v 74.739 h -34.01 V 772.844 c 0,0 26.21,0 28.69,0 2.84,0 4.96,2.48 4.96,4.957 v 6.027 0 c 0,0 10.98,-14.527 34.36,-14.527 38.61,0 68.72,29.758 68.72,70.137 0,40.378 -30.11,70.132 -68.36,70.132 z m -5.67,-108.031 c -13.11,0 -23.38,6.727 -28.69,14.52 v 47.464 c 5.31,7.082 16.64,14.52 28.69,14.52 22.67,0 40.02,-14.168 40.02,-38.254 0,-24.086 -17.35,-38.25 -40.02,-38.25 z m -80.41,50.293 v -79.34 h -34 v 75.446 c 0,21.96 -7.09,30.816 -26.22,30.816 -10.27,0 -20.89,-5.313 -27.62,-13.106 v -92.804 h -34.01 v 133.183 h 26.92 c 2.83,0 4.96,-2.48 4.96,-4.961 v -5.664 c 9.92,10.27 23.03,14.168 36.13,14.168 14.88,0 27.27,-4.25 37.19,-12.754 12.05,-9.918 16.65,-22.668 16.65,-44.984 z m -204.38,57.738 c -23.38,0 -34.36,-14.168 -34.36,-14.168 v 74.739 H 996.129 V 772.844 c 0,0 26.211,0 28.691,0 2.83,0 4.96,2.48 4.96,4.957 v 6.027 0 c 0,0 10.98,-14.527 34.36,-14.527 38.61,0 68.72,29.758 68.72,70.137 0.35,40.378 -29.76,70.132 -68.37,70.132 z m -5.67,-108.031 c -13.1,0 -23.37,6.727 -28.69,14.52 v 47.464 c 5.32,7.082 16.65,14.52 28.69,14.52 22.68,0 40.03,-14.168 40.03,-38.254 0,-24.086 -17.35,-38.25 -40.03,-38.25 z M 966.727,909.57 c 10.273,0 15.589,-1.769 15.589,-1.769 v -31.528 c 0,0 -28.339,9.563 -46.05,-10.625 v -93.156 h -34.004 v 133.535 c 0,0 26.211,0 28.691,0 2.832,0 4.961,-2.48 4.961,-4.961 v -5.664 c 6.375,7.438 20.191,14.168 30.813,14.168 z M 613.582,784.891 c -1.773,4.246 -3.543,8.855 -5.316,12.75 -2.832,6.375 -5.664,12.398 -8.145,18.062 l -0.355,0.356 c -24.442,53.129 -50.653,106.972 -78.278,160.101 l -1.062,2.125 c -2.836,5.317 -5.672,10.981 -8.504,16.649 -3.543,6.376 -7.082,13.106 -12.75,19.486 -11.336,14.16 -27.629,21.96 -44.984,21.96 -17.711,0 -33.653,-7.8 -45.34,-21.25 -5.313,-6.38 -9.211,-13.11 -12.75,-19.489 -2.836,-5.664 -5.672,-11.332 -8.5,-16.645 l -1.067,-2.129 C 359.258,923.738 332.691,869.898 308.25,816.77 l -0.352,-0.711 c -2.48,-5.668 -5.312,-11.688 -8.148,-18.067 -1.77,-3.894 -3.539,-8.144 -5.312,-12.75 -4.606,-13.105 -6.02,-25.5 -4.25,-38.254 3.894,-26.566 21.605,-48.883 46.046,-58.8 9.211,-3.895 18.77,-5.665 28.692,-5.665 2.832,0 6.375,0.352 9.207,0.707 11.691,1.418 23.734,5.313 35.422,12.043 14.523,8.149 28.34,19.836 43.925,36.836 15.583,-17 29.75,-28.687 43.922,-36.836 11.688,-6.73 23.731,-10.625 35.418,-12.043 2.836,-0.355 6.379,-0.707 9.211,-0.707 9.918,0 19.836,1.77 28.692,5.665 24.793,9.917 42.152,32.585 46.047,58.8 2.832,12.399 1.418,24.793 -3.188,37.903 z m -159.75,-18.422 c -19.129,24.086 -31.523,46.754 -35.773,65.883 -1.774,8.148 -2.129,15.23 -1.067,21.605 0.711,5.668 2.836,10.629 5.672,14.879 6.727,9.562 18.063,15.582 31.168,15.582 13.106,0 24.797,-5.664 31.172,-15.582 2.832,-4.25 4.961,-9.211 5.668,-14.879 1.058,-6.375 0.707,-13.812 -1.063,-21.605 -4.254,-18.774 -16.648,-41.442 -35.777,-65.883 z M 595.164,749.82 c -2.48,-18.418 -14.879,-34.355 -32.234,-41.441 -8.5,-3.543 -17.711,-4.606 -26.922,-3.543 -8.856,1.062 -17.711,3.898 -26.918,9.211 -12.75,7.082 -25.5,18.062 -40.379,34.359 23.379,28.692 37.547,54.899 42.859,78.278 2.481,10.98 2.832,20.898 1.77,30.109 -1.418,8.855 -4.606,17.004 -9.563,24.086 -10.98,15.937 -29.398,25.148 -49.945,25.148 -20.543,0 -38.961,-9.562 -49.941,-25.148 -4.961,-7.082 -8.149,-15.231 -9.567,-24.086 -1.414,-9.211 -1.062,-19.484 1.774,-30.109 5.312,-23.379 19.836,-49.942 42.859,-78.633 -14.523,-16.293 -27.629,-27.278 -40.379,-34.36 -9.211,-5.312 -18.066,-8.148 -26.922,-9.211 -9.562,-1.058 -18.773,0.356 -26.922,3.543 -17.355,7.086 -29.75,23.024 -32.23,41.446 -1.063,8.855 -0.356,17.711 3.187,27.629 1.063,3.539 2.832,7.082 4.606,11.332 2.48,5.668 5.312,11.691 8.144,17.711 l 0.356,0.707 c 24.441,52.777 50.652,106.617 77.926,159.043 l 1.062,2.121 c 2.832,5.316 5.668,10.984 8.504,16.297 2.832,5.668 6.02,10.98 9.914,15.582 7.442,8.499 17.356,13.109 28.34,13.109 10.98,0 20.898,-4.61 28.336,-13.109 3.894,-4.602 7.086,-9.914 9.918,-15.582 2.832,-5.313 5.668,-10.981 8.504,-16.297 l 1.058,-2.121 c 26.922,-52.778 53.133,-106.618 77.575,-159.395 v -0.355 c 2.832,-5.668 5.312,-12.043 8.144,-17.711 1.774,-4.25 3.543,-7.793 4.606,-11.332 2.832,-9.211 3.894,-18.067 2.48,-27.278" /></g></g></svg>